<svg width="24" height="24" viewBox="0 0 24 24" fill="none" xmlns="http://www.w3.org/2000/svg">
<path d="M21 15V18C21 18.5304 20.7893 19.0391 20.4142 19.4142C20.0391 19.7893 19.5304 20 19 20H5C4.46957 20 3.96086 19.7893 3.58579 19.4142C3.21071 19.0391 3 18.5304 3 18V15M21 10V13C21 13.5304 20.7893 14.0391 20.4142 14.4142C20.0391 14.7893 19.5304 15 19 15H5C4.46957 15 3.96086 14.7893 3.58579 14.4142C3.21071 14.0391 3 13.5304 3 13V10M21 5V8C21 8.53043 20.7893 9.03914 20.4142 9.41421C20.0391 9.78929 19.5304 10 19 10H5C4.46957 10 3.96086 9.78929 3.58579 9.41421C3.21071 9.03914 3 8.53043 3 8V5M12 15V10M12 10V5" stroke="#60A5FA" stroke-width="2" stroke-linecap="round" stroke-linejoin="round"/>
</svg>