<svg width="24" height="24" viewBox="0 0 24 24" fill="none" xmlns="http://www.w3.org/2000/svg">
<path d="M12 2C6.48 2 2 6.48 2 12C2 17.52 6.48 22 12 22C17.52 22 22 17.52 22 12C22 6.48 17.52 2 12 2ZM12 20C7.59 20 4 16.41 4 12C4 7.59 7.59 4 12 4C16.41 4 20 7.59 20 12C20 16.41 16.41 20 12 20ZM15.5 11C15.5 10.17 14.83 9.5 14 9.5C13.17 9.5 12.5 10.17 12.5 11C12.5 11.83 13.17 12.5 14 12.5C14.83 12.5 15.5 11.83 15.5 11ZM8.5 11C8.5 10.17 7.83 9.5 7 9.5C6.17 9.5 5.5 10.17 5.5 11C5.5 11.83 6.17 12.5 7 12.5C7.83 12.5 8.5 11.83 8.5 11ZM12 16.5C10.67 16.5 9.5 15.33 9.5 14H14.5C14.5 15.33 13.33 16.5 12 16.5Z" fill="#60A5FA"/>
</svg>